<svg xmlns="http://www.w3.org/2000/svg" xmlns:xlink="http://www.w3.org/1999/xlink" fill="none" version="1.1" width="87" height="24" viewBox="0 0 87 24"><g><g><path d="M26.43037676208496,9.60322C26.29077676208496,9.26542,25.809946762084962,9.36193,25.809946762084962,9.7319L25.809946762084962,22.1341C25.809946762084962,23.1635,25.00338676208496,24,24.01069676208496,24C23.018006762084962,24,22.21144676208496,23.1635,22.21144676208496,22.1341L22.21144676208496,2.92761C22.21144676208496,1.31904,23.46781676208496,0,25.034406762084963,0C26.197716762084962,0,27.22142676208496,0.723861,27.65573676208496,1.84987L31.890176762084963,12.9008C32.06079676208496,13.3512,32.665746762084964,13.3512,32.83634676208496,12.9008L37.08624676208496,1.83378C37.52054676208496,0.723861,38.55984676208496,0,39.723146762084966,0C41.27424676208496,0,42.546046762084956,1.30295,42.546046762084956,2.92761L42.546046762084956,22.134C42.546046762084956,23.1635,41.739546762084956,24,40.74684676208496,24C39.75414676208496,24,38.94754676208496,23.1635,38.94754676208496,22.134L38.94754676208496,9.60322C38.94754676208496,9.23324,38.46674676208496,9.13673,38.327146762084965,9.47453L34.65104676208496,17.9357C34.263346762084964,18.9008,33.36374676208496,19.5121,32.37104676208496,19.5121C31.37831676208496,19.5121,30.47869676208496,18.8847,30.090926762084962,17.9357L26.414866762084962,9.60322L26.43037676208496,9.60322Z" fill="#FFFFFF" fill-opacity="1" style="mix-blend-mode:passthrough"/></g><g><path d="M10.1596,6.56272097076416C13.8356,6.56272097076416,16.8137,9.66727097076416,16.8137,13.46353097076416C16.8137,17.25973097076416,13.8201,20.36433097076416,10.1596,20.36433097076416C6.49902,20.36433097076416,3.50544,17.25973097076416,3.50544,13.46353097076416C3.50544,9.66728097076416,6.49902,6.56272097076416,10.1596,6.56272097076416ZM10.1596,2.92733097076416C4.54466,2.92733097076416,0,7.64047097076416,0,13.46353097076416C0,19.28653097076416,4.54466,23.99973097076416,10.1596,23.99973097076416C15.7745,23.99973097076416,20.3191,19.28653097076416,20.3191,13.46353097076416C20.3191,7.64047097076416,15.759,2.92733097076416,10.1596,2.92733097076416Z" fill="#FFFFFF" fill-opacity="1" style="mix-blend-mode:passthrough"/></g><g><path d="M54.613510827636716,6.56272097076416C58.28951082763672,6.56272097076416,61.267610827636716,9.66728097076416,61.267610827636716,13.46353097076416C61.267610827636716,17.25973097076416,58.274010827636715,20.36433097076416,54.613510827636716,20.36433097076416C50.95293082763672,20.36433097076416,47.959340827636716,17.25973097076416,47.959340827636716,13.46353097076416C47.959340827636716,9.66728097076416,50.95293082763672,6.56272097076416,54.613510827636716,6.56272097076416ZM54.613510827636716,2.92733154603716C48.99857082763672,2.92733154603716,44.45391082763672,7.64047097076416,44.45391082763672,13.46353097076416C44.45391082763672,19.28653097076416,48.99857082763672,23.99973097076416,54.613510827636716,23.99973097076416C60.22841082763672,23.99973097076416,64.77301082763671,19.28653097076416,64.77301082763671,13.46353097076416C64.77301082763671,7.64047097076416,60.22841082763672,2.92733097076416,54.613510827636716,2.92733154603716Z" fill="#FFFFFF" fill-opacity="1" style="mix-blend-mode:passthrough"/></g><g><path d="M76.84047768554687,6.56272097076416C80.51647768554687,6.56272097076416,83.49457768554687,9.66728097076416,83.49457768554687,13.46353097076416C83.49457768554687,17.25973097076416,80.50097768554687,20.36433097076416,76.84047768554687,20.36433097076416C73.17989768554688,20.36433097076416,70.18630768554688,17.25973097076416,70.18630768554688,13.46353097076416C70.18630768554688,9.66728097076416,73.17989768554688,6.56272097076416,76.84047768554687,6.56272097076416ZM76.84047768554687,2.92733154603716C71.22553768554687,2.92733154603716,66.68087768554688,7.64047097076416,66.68087768554688,13.46353097076416C66.68087768554688,19.28653097076416,71.22553768554687,23.99973097076416,76.84047768554687,23.99973097076416C82.45537768554688,23.99973097076416,86.99997768554687,19.28653097076416,86.99997768554687,13.46353097076416C86.99997768554687,7.64047097076416,82.45537768554688,2.92733097076416,76.84047768554687,2.92733154603716Z" fill="#FFFFFF" fill-opacity="1" style="mix-blend-mode:passthrough"/></g></g></svg>